<?xml version="1.0" encoding="utf-8"?>
<!-- Generator: Adobe Illustrator 22.0.1, SVG Export Plug-In . SVG Version: 6.00 Build 0)  -->
<svg version="1.1" id="S.I._Newhouse_School_of_Public_Communications"
	 xmlns="http://www.w3.org/2000/svg" xmlns:xlink="http://www.w3.org/1999/xlink" x="0px" y="0px" viewBox="0 0 257.9 47.8"
	 style="enable-background:new 0 0 257.9 47.8;" xml:space="preserve">
<style type="text/css">
	.st0{fill:#618DAF;}
	.st1{fill:#8C8D8E;}
</style>
<g>
	<g>
		<g>
			<g>
				<g>
					<path class="st0" d="M137.6,27.6c0-0.4-0.1-0.8-0.2-1.2c-0.1-0.4-0.2-0.8-0.3-1.1c-0.1-0.4-0.2-0.7-0.4-1
						c-0.1-0.3-0.3-0.6-0.5-1c-0.2-0.3-0.4-0.6-0.6-0.9c-0.2-0.3-0.4-0.5-0.7-0.8c-0.2-0.2-0.5-0.5-0.8-0.7
						c-0.2-0.2-0.4-0.3-0.7-0.5c-0.2-0.1-0.5-0.3-0.7-0.4c-0.2-0.1-0.5-0.2-0.8-0.3c-0.3-0.1-0.5-0.2-0.8-0.3
						c-0.3-0.1-0.6-0.2-0.9-0.2c-0.3-0.1-0.6-0.1-0.9-0.2c-0.3,0-0.6-0.1-1-0.1c-0.3,0-0.7,0-1,0c-0.4,0-0.9,0-1.3,0.1
						c-0.4,0-0.8,0.1-1.2,0.2c-0.4,0.1-0.8,0.2-1.1,0.3c-0.4,0.1-0.7,0.2-1,0.4c-0.3,0.1-0.6,0.3-0.9,0.5c-0.3,0.2-0.6,0.4-0.9,0.6
						c-0.3,0.2-0.5,0.4-0.8,0.7c-0.2,0.2-0.5,0.5-0.7,0.8l0-11l-6.6-2.9v38.6h6.6V33c0-0.3,0-0.5,0-0.7c0-0.2,0-0.5,0.1-0.7
						c0-0.2,0.1-0.5,0.1-0.7c0-0.2,0.1-0.4,0.2-0.6c0.1-0.2,0.1-0.4,0.2-0.6c0.1-0.2,0.2-0.4,0.2-0.6c0.1-0.2,0.2-0.4,0.3-0.5
						c0.1-0.2,0.2-0.3,0.3-0.5c0.1-0.2,0.3-0.4,0.4-0.6c0.2-0.2,0.3-0.4,0.5-0.5c0.2-0.2,0.4-0.3,0.6-0.4c0.2-0.1,0.4-0.3,0.6-0.4
						c0.2-0.1,0.4-0.2,0.7-0.3c0.2-0.1,0.5-0.1,0.7-0.2c0.2-0.1,0.5-0.1,0.8-0.1c0.3,0,0.5,0,0.8,0c0.4,0,0.8,0,1.1,0.1
						c0.4,0.1,0.7,0.1,1,0.3c0.3,0.1,0.6,0.3,0.8,0.4c0.3,0.2,0.5,0.4,0.7,0.6c0.2,0.2,0.4,0.5,0.5,0.8c0.2,0.3,0.3,0.6,0.4,0.9
						c0.1,0.3,0.2,0.7,0.2,1.1c0.1,0.4,0.1,0.8,0.1,1.3v16.3h6.6V31.2V29C137.7,28.5,137.7,28.1,137.6,27.6z"/>
				</g>
			</g>
		</g>
	</g>
	<path class="st0" d="M0,47.1V7.4h2.6l24.9,24.9V7.4h7.9v39.7h-2.9L7.9,22.5v24.6H0z"/>
	<path class="st0" d="M68.2,35H47.9c0,2,0.8,3.6,2.3,4.9c1.3,1.2,2.9,1.8,4.8,1.8c3.4,0,6.1-1.3,7.9-3.9l5.6,3.3
		c-2.9,4.5-7.4,6.7-13.5,6.7c-4.3,0-7.8-1.4-10.4-4.1C42.2,41,41,37.6,41,33.4c0-4.2,1.3-7.6,3.8-10.3c2.5-2.7,5.9-4,10.3-4
		C63.8,19.1,68.2,24.4,68.2,35z M47.9,29.9h13.3c0-1-0.5-2.1-1.5-3.3c-1.2-1.4-2.8-2.2-4.8-2.2c-1.8,0-3.4,0.5-4.7,1.5
		C49.1,27.1,48.3,28.3,47.9,29.9z"/>
	<path class="st0" d="M78,47.1l-7.9-27.4h6.8l4.6,18.6h0.1l5.1-18.6h6l5.1,18.6H98l4.6-18.6h6.8l-7.9,27.4H95l-5.2-18.4h-0.1
		l-5.2,18.4H78z"/>
	<path class="st0" d="M155.5,19.1c4.3,0,7.8,1.4,10.4,4.1c2.5,2.6,3.7,6.1,3.7,10.2c0,4.2-1.2,7.6-3.7,10.2c-2.6,2.7-6,4.1-10.4,4.1
		c-4.3,0-7.8-1.4-10.4-4.1c-2.5-2.6-3.7-6.1-3.7-10.2c0-4.2,1.3-7.6,3.8-10.3C147.8,20.4,151.2,19.1,155.5,19.1z M155.5,25.1
		c-2.2,0-4,0.8-5.3,2.5c-1.2,1.6-1.8,3.5-1.8,5.7c0,2.3,0.6,4.2,1.8,5.7c1.3,1.7,3.1,2.5,5.3,2.5c2.2,0,4-0.8,5.3-2.5
		c1.2-1.6,1.8-3.5,1.8-5.7c0-2.3-0.6-4.2-1.8-5.7C159.5,26,157.8,25.1,155.5,25.1z"/>
	<path class="st0" d="M198.3,19.7v27.4h-6.6v-2.7c-1.7,2.2-4.4,3.4-7.9,3.4c-2.8,0-5.1-0.7-6.8-2c-2.2-1.7-3.3-4.4-3.3-8V19.7h6.6
		V36c0,3.6,1.6,5.4,4.9,5.4c2.3,0,4-0.7,5.1-2.2c0.9-1.2,1.4-2.8,1.4-4.7V19.7H198.3z"/>
	<path class="st0" d="M226.8,24l-4.6,4.3c-1.2-2.6-3.5-3.9-6.9-3.9c-3.4,0-5,0.8-5,2.7c0,1.2,1.5,2.1,4.5,2.7c4.5,0.8,7.3,1.5,8.3,2
		c3,1.3,4.5,3.4,4.5,6.4c0,3.1-1.2,5.5-3.7,7.3c-2.2,1.6-5.1,2.3-8.5,2.3c-5.9,0-10.4-1.7-13.3-5l5-3.8c1.6,2.3,4.2,3.4,7.9,3.4
		c1.5,0,2.8-0.3,3.8-1c1-0.7,1.5-1.4,1.5-2.2c0-1.2-1.5-2.1-4.4-2.7c-4.4-0.9-7.1-1.6-8.2-2.1c-2.9-1.3-4.4-3.5-4.4-6.5
		c0-3,1.2-5.2,3.5-6.8c2.1-1.4,5-2.1,8.6-2.1C220.4,19.1,224.2,20.7,226.8,24z"/>
	<path class="st0" d="M257.5,35h-20.3c0,2,0.8,3.6,2.3,4.9c1.3,1.2,2.9,1.8,4.8,1.8c3.4,0,6.1-1.3,7.9-3.9l5.6,3.3
		c-2.9,4.5-7.4,6.7-13.5,6.7c-4.3,0-7.8-1.4-10.4-4.1c-2.5-2.6-3.7-6.1-3.7-10.2c0-4.2,1.3-7.6,3.8-10.3c2.5-2.7,5.9-4,10.3-4
		C253.1,19.1,257.5,24.4,257.5,35z M237.3,29.9h13.3c0-1-0.5-2.1-1.5-3.3c-1.2-1.4-2.8-2.2-4.8-2.2c-1.8,0-3.4,0.5-4.7,1.5
		C238.4,27.1,237.6,28.3,237.3,29.9z"/>
	<path class="st1" d="M47.2,10.9c4.6-3.6,10.5-5.8,16.1-7.3c15.4-4.1,31.6-0.8,45.8,5.8c0.8,0.4,3.2-0.8,2.1-1.3
		C96.5,1.2,80.4-1.7,64.4,1.8c-6.5,1.5-13.6,4-18.9,8.2C44.1,11.1,46.4,11.6,47.2,10.9L47.2,10.9z"/>
	<path class="st1" d="M193.7,0.3c-4.6,4.5-10.9,7.5-16.8,9.8c-16.9,6.7-35.9,6.1-53.3,2.1c-1.4-0.3-2.7,1.3-0.9,1.7
		c18,4.2,36.9,4.7,54.4-1.6c6.6-2.4,13.7-5.8,18.8-10.7C197,0.5,194.5-0.5,193.7,0.3L193.7,0.3z"/>
</g>
</svg>
